<?xml version="1.0" encoding="utf-8"?>
<svg version="1.1" baseProfile="tiny" id="logo_1_" xmlns="http://www.w3.org/2000/svg" xmlns:xlink="http://www.w3.org/1999/xlink"
	 x="0px" y="0px" viewBox="0 0 850 250" xml:space="preserve">
<g id="Content_Delivery_Network">
	<g>
		<path fill="#387FA6" d="M350.1,184c0-8.6,6.3-14.5,14.4-14.5c5,0,8.4,2.4,10.6,5.5l-2.9,1.6c-1.6-2.4-4.5-4.1-7.7-4.1
			c-6.1,0-10.8,4.7-10.8,11.4c0,6.6,4.7,11.4,10.8,11.4c3.2,0,6.1-1.7,7.7-4.1l2.9,1.6c-2.4,3.2-5.7,5.6-10.7,5.6
			C356.5,198.5,350.1,192.6,350.1,184z"/>
		<path fill="#387FA6" d="M378.4,187.8c0-5.9,3.9-10.6,10-10.6c6.2,0,10,4.7,10,10.6c0,5.9-3.9,10.7-10,10.7
			C382.2,198.5,378.4,193.7,378.4,187.8z M395.1,187.8c0-4.1-2.4-7.8-6.7-7.8c-4.3,0-6.7,3.7-6.7,7.8c0,4.2,2.4,7.9,6.7,7.9
			C392.7,195.7,395.1,192,395.1,187.8z"/>
		<path fill="#387FA6" d="M417.3,198v-13.3c0-3.6-1.8-4.7-4.6-4.7c-2.5,0-4.8,1.5-6,3.2V198h-3.2v-20.3h3.2v2.9
			c1.4-1.7,4.2-3.4,7.3-3.4c4.2,0,6.4,2.1,6.4,6.6V198H417.3z"/>
		<path fill="#387FA6" d="M427.4,193.8v-13.3H424v-2.8h3.4v-5.5h3.2v5.5h4.1v2.8h-4.1v12.6c0,1.5,0.7,2.6,2,2.6
			c0.9,0,1.7-0.4,2.1-0.9l0.9,2.4c-0.8,0.8-1.9,1.3-3.7,1.3C428.9,198.5,427.4,196.8,427.4,193.8z"/>
		<path fill="#387FA6" d="M437.9,187.8c0-5.9,4.2-10.6,10-10.6c6.1,0,9.7,4.8,9.7,10.9v0.8h-16.4c0.3,3.8,2.9,7,7.3,7
			c2.4,0,4.7-0.9,6.3-2.6l1.5,2.1c-2.1,2-4.8,3.2-8.1,3.2C442.2,198.5,437.9,194.2,437.9,187.8z M447.9,179.8
			c-4.3,0-6.5,3.7-6.6,6.7h13.3C454.5,183.5,452.5,179.8,447.9,179.8z"/>
		<path fill="#387FA6" d="M476.5,198v-13.3c0-3.6-1.8-4.7-4.6-4.7c-2.5,0-4.8,1.5-6,3.2V198h-3.2v-20.3h3.2v2.9
			c1.4-1.7,4.2-3.4,7.3-3.4c4.2,0,6.4,2.1,6.4,6.6V198H476.5z"/>
		<path fill="#387FA6" d="M486.6,193.8v-13.3h-3.4v-2.8h3.4v-5.5h3.2v5.5h4.1v2.8h-4.1v12.6c0,1.5,0.7,2.6,2,2.6
			c0.9,0,1.7-0.4,2.1-0.9l0.9,2.4c-0.8,0.8-1.9,1.3-3.7,1.3C488.1,198.5,486.6,196.8,486.6,193.8z"/>
		<path fill="#387FA6" d="M509.3,198v-28h9.6c8.7,0,14.4,6.1,14.4,14c0,8-5.6,14-14.4,14H509.3z M529.6,184c0-6-3.8-10.9-10.8-10.9
			h-6.1v21.8h6.1C525.7,194.9,529.6,190,529.6,184z"/>
		<path fill="#387FA6" d="M537.4,187.8c0-5.9,4.2-10.6,10-10.6c6.1,0,9.7,4.8,9.7,10.9v0.8h-16.4c0.3,3.8,2.9,7,7.3,7
			c2.4,0,4.7-0.9,6.3-2.6l1.5,2.1c-2.1,2-4.8,3.2-8.1,3.2C541.7,198.5,537.4,194.2,537.4,187.8z M547.3,179.8
			c-4.3,0-6.5,3.7-6.6,6.7H554C554,183.5,552,179.8,547.3,179.8z"/>
		<path fill="#387FA6" d="M562.2,198v-28h3.2v28H562.2z"/>
		<path fill="#387FA6" d="M571.1,172.7c0-1.2,1-2.1,2.1-2.1c1.2,0,2.1,1,2.1,2.1c0,1.2-0.9,2.1-2.1,2.1
			C572.1,174.8,571.1,173.9,571.1,172.7z M571.6,198v-20.3h3.2V198H571.6z"/>
		<path fill="#387FA6" d="M586.5,198l-8.4-20.3h3.4l6.7,16.6l6.8-16.6h3.4L590,198H586.5z"/>
		<path fill="#387FA6" d="M600.5,187.8c0-5.9,4.2-10.6,10-10.6c6.1,0,9.7,4.8,9.7,10.9v0.8h-16.4c0.3,3.8,2.9,7,7.3,7
			c2.4,0,4.7-0.9,6.3-2.6l1.5,2.1c-2.1,2-4.8,3.2-8.1,3.2C604.8,198.5,600.5,194.2,600.5,187.8z M610.5,179.8
			c-4.3,0-6.5,3.7-6.6,6.7h13.3C617.1,183.5,615.1,179.8,610.5,179.8z"/>
		<path fill="#387FA6" d="M625.3,198v-20.3h3.2v3.2c1.6-2.1,4-3.7,6.8-3.7v3.2c-0.4,0-0.8-0.1-1.2-0.1c-2,0-4.6,1.6-5.5,3.2V198
			H625.3z"/>
		<path fill="#387FA6" d="M638.5,203.1c0.5,0.2,1.2,0.3,1.7,0.3c1.4,0,2.3-0.5,3-2.1l1.3-3.1l-8.5-20.5h3.4l6.7,16.6l6.8-16.6h3.4
			l-10.2,24.4c-1.2,2.9-3.3,4.1-6,4.1c-0.7,0-1.7-0.1-2.3-0.3L638.5,203.1z"/>
		<path fill="#387FA6" d="M690.6,198l-16.3-22.3V198h-3.5v-28h3.6l16.1,21.9V170h3.5v28H690.6z"/>
		<path fill="#387FA6" d="M699.2,187.8c0-5.9,4.2-10.6,10-10.6c6.1,0,9.7,4.8,9.7,10.9v0.8h-16.4c0.3,3.8,2.9,7,7.3,7
			c2.4,0,4.7-0.9,6.3-2.6l1.5,2.1c-2.1,2-4.8,3.2-8.1,3.2C703.5,198.5,699.2,194.2,699.2,187.8z M709.2,179.8
			c-4.3,0-6.5,3.7-6.6,6.7h13.3C715.8,183.5,713.8,179.8,709.2,179.8z"/>
		<path fill="#387FA6" d="M724.6,193.8v-13.3h-3.4v-2.8h3.4v-5.5h3.2v5.5h4.1v2.8h-4.1v12.6c0,1.5,0.7,2.6,2,2.6
			c0.9,0,1.7-0.4,2.1-0.9l0.9,2.4c-0.8,0.8-1.9,1.3-3.7,1.3C726.2,198.5,724.6,196.8,724.6,193.8z"/>
		<path fill="#387FA6" d="M753.9,198l-5.3-16.3l-5.3,16.3h-3.2l-6.5-20.3h3.3l5,16.2l5.3-16.2h2.7l5.3,16.2l5-16.2h3.3l-6.5,20.3
			H753.9z"/>
		<path fill="#387FA6" d="M766,187.8c0-5.9,3.9-10.6,10-10.6c6.2,0,10,4.7,10,10.6c0,5.9-3.9,10.7-10,10.7
			C769.9,198.5,766,193.7,766,187.8z M782.8,187.8c0-4.1-2.4-7.8-6.7-7.8c-4.3,0-6.7,3.7-6.7,7.8c0,4.2,2.4,7.9,6.7,7.9
			C780.4,195.7,782.8,192,782.8,187.8z"/>
		<path fill="#387FA6" d="M791.2,198v-20.3h3.2v3.2c1.6-2.1,4-3.7,6.8-3.7v3.2c-0.4,0-0.8-0.1-1.2-0.1c-2,0-4.6,1.6-5.5,3.2V198
			H791.2z"/>
		<path fill="#387FA6" d="M818.9,198l-7.3-9.1l-3.4,3.3v5.8h-3.2v-28h3.2v18.5l10.7-10.8h4l-9,9.2l9,11.1H818.9z"/>
	</g>
</g>
<g id="CDN77.com">
	<g>
		<path fill="#012A3F" d="M243.1,103.7c0-23.7,18.2-39.7,42.2-39.7c20.1,0,30.2,11.7,34.8,22.3l-20,9.3c-2-6-7.9-11.2-14.8-11.2
			c-11.2,0-18.6,8.5-18.6,19.2s7.5,19.2,18.6,19.2c6.9,0,12.9-5.2,14.8-11.2l20,9.2c-4.5,10.2-14.7,22.4-34.8,22.4
			C261.2,143.4,243.1,127.3,243.1,103.7z"/>
		<path fill="#012A3F" d="M327.4,142V65.3h34.3c24.2,0,42.1,13.8,42.1,38.3c0,24.5-17.9,38.4-42,38.4H327.4z M380.2,103.6
			c0-10.4-6-18.1-18.4-18.1h-11.2v36.2h11C373.3,121.8,380.2,113.2,380.2,103.6z"/>
		<path fill="#012A3F" d="M463.5,142l-28.3-38.9V142H412V65.3h23.9l26.7,36.3V65.3h23.2V142H463.5z"/>
		<path fill="#012A3F" d="M505.8,142l24.3-56.5h-36V65.3h62.7v16.1L531.3,142H505.8z"/>
		<path fill="#012A3F" d="M572,142l24.3-56.5h-36V65.3h62.7v16.1L597.4,142H572z"/>
		<path fill="#012A3F" d="M627.4,133.5c0-5.2,4.4-9.6,9.6-9.6c5.2,0,9.6,4.4,9.6,9.6s-4.4,9.6-9.6,9.6
			C631.8,143.1,627.4,138.7,627.4,133.5z"/>
		<path fill="#012A3F" d="M651.3,120.2c0-13.8,10.6-22.8,24.4-22.8c9.9,0,16,4.5,18.4,8.2l-10.4,9.8c-1.4-2.1-3.9-3.7-7.3-3.7
			c-4.6,0-8.5,2.9-8.5,8.5c0,5.6,4,8.5,8.5,8.5c3.4,0,5.9-1.8,7.3-3.8l10.4,9.9c-2.4,3.6-8.5,8.2-18.4,8.2
			C661.9,143.1,651.3,134.1,651.3,120.2z"/>
		<path fill="#012A3F" d="M696.5,120.2c0-12.1,9-22.8,24.4-22.8c15.5,0,24.5,10.6,24.5,22.8s-9,22.9-24.5,22.9
			C705.5,143.1,696.5,132.4,696.5,120.2z M728.7,120.2c0-4.8-2.8-8.5-7.8-8.5c-5,0-7.7,3.7-7.7,8.5c0,4.9,2.8,8.5,7.7,8.5
			C725.9,128.8,728.7,125.1,728.7,120.2z"/>
		<path fill="#012A3F" d="M806.9,142v-25.4c0-2.6-1.3-4.9-4.9-4.9c-3.6,0-5.6,2.2-6.7,3.4V142h-16.2v-25.4c0-2.6-1.3-4.9-5-4.9
			c-3.5,0-5.5,2.2-6.6,3.4V142h-16.2V98.5h16.2v4.9c1.9-2.4,7.4-6,14.4-6c6.1,0,10.5,2.2,12.5,7.6c2.5-3.8,8.2-7.6,15.2-7.6
			c8,0,13.4,4,13.4,13V142H806.9z"/>
	</g>
</g>
<g id="logo_x5F_1">
	<path fill-rule="evenodd" fill="#012A3F" d="M115,24.4c-48.3,0-87.5,39.2-87.5,87.5c0,48.3,87.5,116.6,87.5,116.6
		s87.5-68.3,87.5-116.6C202.5,63.6,163.3,24.4,115,24.4z"/>
</g>
<g id="logo_x5F_2">
	<path fill-rule="evenodd" fill="#FFDE00" d="M115,55.7c-29.5,0-53.3,23.9-53.3,53.3c0,29.4,23.9,53.3,53.3,53.3
		c29.5,0,53.3-23.9,53.3-53.3C168.3,79.6,144.5,55.7,115,55.7z"/>
</g>
<g id="logo_x5F_3">
	<circle fill-rule="evenodd" fill="#012A3F" cx="115" cy="109" r="24.1"/>
</g>
</svg>
