<?xml version="1.0" encoding="UTF-8"?>
<svg width="384px" height="90px" viewBox="0 0 384 90" version="1.1" xmlns="http://www.w3.org/2000/svg" xmlns:xlink="http://www.w3.org/1999/xlink">
    <!-- Generator: Sketch 51.1 (57501) - http://www.bohemiancoding.com/sketch -->
    <title>Group 28</title>
    <desc>Created with Sketch.</desc>
    <defs></defs>
    <g id="Page-1" stroke="none" stroke-width="1" fill="none" fill-rule="evenodd">
        <g id="Slevomat-Logo-Light-Vector---RGB" transform="translate(-28.000000, -28.000000)" fill="#10B8F0">
            <g id="Group-28" transform="translate(28.000000, 28.000000)">
                <path d="M298.6962,57.699 C298.1352,59.963 297.8242,62.228 297.5122,64.553 L297.3882,64.553 C297.1382,61.616 296.8892,59.719 296.3912,57.76 L287.2322,21.958 L278.0742,21.958 L278.0742,67.858 L283.2452,67.858 L283.2452,30.159 C283.2452,28.201 283.1202,26.181 283.1202,24.223 L283.2452,24.223 C283.8052,26.732 284.1792,28.262 284.6152,29.853 L294.3972,67.858 L300.5652,67.858 L310.3472,30.404 C310.7832,28.629 311.2192,26.915 311.7802,24.223 L311.9042,24.223 C312.0292,26.181 311.9042,28.078 311.9042,30.037 L311.9042,67.858 L317.0762,67.858 L317.0762,21.958 L307.9792,21.958 L298.6962,57.699 Z" id="Fill-2"></path>
                <polygon id="Fill-4" points="217.9509 64.1862 217.8259 64.1862 207.0479 21.9582 201.3159 21.9582 214.7109 67.8582 221.1289 67.8582 234.5859 21.9582 228.8539 21.9582"></polygon>
                <polygon id="Fill-6" points="179.2604 46.3158 196.3314 46.3158 196.3314 41.7258 179.2604 41.7258 179.2604 26.5478 197.4534 26.5478 197.4534 21.9578 174.0894 21.9578 174.0894 67.8578 197.5774 67.8578 197.5774 63.2678 179.2604 63.2678"></polygon>
                <polygon id="Fill-8" points="148.6695 21.9582 143.4985 21.9582 143.4985 67.8582 167.7345 67.8582 167.7345 63.2682 148.6695 63.2682"></polygon>
                <path d="M124.6825,42.8274 C122.1905,41.9094 119.7605,40.9914 117.2685,40.0734 C114.2775,38.9714 112.8445,37.0134 112.8445,33.8314 C112.8445,30.2814 113.6545,25.6304 121.1935,25.6304 C126.3645,25.6304 128.9815,29.2414 128.6075,34.0144 L133.7785,34.0144 C134.2775,25.3854 129.0435,21.0404 120.5085,21.0404 C112.9075,21.0404 107.4865,25.9974 107.4865,33.5864 C107.4865,38.1154 108.6085,41.7874 113.0315,43.9904 C115.5235,45.2754 119.6365,46.5604 122.1905,47.5394 C126.9255,49.3144 129.7915,49.3754 129.7915,56.3524 C129.7915,61.7384 126.1155,64.3694 120.8825,64.3694 C113.0945,64.3694 111.7855,60.0854 112.0345,53.2924 L106.8635,53.2924 C106.9265,55.7404 106.8635,59.4124 107.8605,61.6774 C110.5395,67.6744 116.0225,68.9594 120.6325,68.9594 C129.6045,68.9594 135.1495,63.8804 135.1495,55.1894 C135.1495,49.1314 133.5295,46.0714 124.6825,42.8274" id="Fill-10"></path>
                <path d="M254.3362,64.3699 C245.7382,64.3699 244.3672,57.3319 244.3052,44.0519 C244.2432,33.8309 246.2372,25.6299 254.2112,25.6299 C262.4352,25.6299 264.4292,33.8309 264.3672,44.0519 C264.3052,57.3319 262.9342,64.3699 254.3362,64.3699 M254.4612,21.0399 C240.5672,21.0399 238.9472,33.4029 238.9472,43.9289 C239.0722,56.6589 240.6922,68.9599 254.3362,68.9599 C267.9802,68.9599 269.6632,56.6589 269.7252,43.9289 C269.7872,33.4029 268.1052,21.0399 254.4612,21.0399" id="Fill-12"></path>
                <path d="M332.9008,50.049 L339.0688,25.63 L339.1938,25.63 L345.2368,50.049 L332.9008,50.049 Z M335.8288,21.958 L322.4958,67.858 L328.2278,67.858 L331.6548,54.639 L346.4208,54.639 L350.0968,67.858 L355.8288,67.858 L342.6828,21.958 L335.8288,21.958 Z" id="Fill-14"></path>
                <path d="M14.468,50.5501 C13.803,46.7761 10.204,44.2571 6.43,44.9221 C2.657,45.5871 0.137,49.1861 0.802,52.9601 C1.468,56.7331 5.066,59.2531 8.84,58.5881 C12.614,57.9221 15.133,54.3241 14.468,50.5501" id="Fill-16"></path>
                <path d="M50.8777,76.0445 C47.1037,76.7095 44.5847,80.3085 45.2497,84.0825 C45.9147,87.8555 49.5137,90.3755 53.2877,89.7105 C57.0607,89.0445 59.5807,85.4465 58.9157,81.6725 C58.2497,77.8985 54.6517,75.3795 50.8777,76.0445" id="Fill-18"></path>
                <path d="M17.7296,72.542 C15.5316,75.681 16.2946,80.007 19.4336,82.205 C22.5726,84.403 26.8986,83.64 29.0966,80.501 C31.2946,77.362 30.5316,73.036 27.3926,70.838 C24.2536,68.64 19.9276,69.403 17.7296,72.542" id="Fill-20"></path>
                <path d="M19.6744,27.0652 C21.8724,23.9262 21.1094,19.6002 17.9704,17.4022 C14.8314,15.2042 10.5054,15.9672 8.3074,19.1062 C6.1094,22.2452 6.8724,26.5712 10.0114,28.7692 C13.1504,30.9672 17.4764,30.2042 19.6744,27.0652" id="Fill-22"></path>
                <path d="M88.8761,47.5231 C90.2041,44.4121 90.6851,40.8981 90.0541,37.3181 C89.4091,33.6601 87.7031,30.4581 85.3111,27.9651 L76.1641,29.5781 C75.1241,27.4871 73.9021,25.5861 72.4651,23.7981 L77.8671,16.0831 C76.6061,12.9441 74.4611,10.1191 71.4841,8.0341 C68.4411,5.9041 64.9701,4.8451 61.5161,4.7741 L56.1761,12.4021 C54.0151,11.6791 51.7861,11.1751 49.4851,10.9031 L47.8511,1.6361 C44.7401,0.3081 41.2251,-0.1729 37.6461,0.4581 C33.9881,1.1031 30.7851,2.8091 28.2931,5.2011 L30.4541,17.4561 C31.3611,16.9641 32.2981,16.5161 33.2621,16.1121 L31.5461,6.3811 C33.4201,4.9101 35.6591,3.8541 38.1661,3.4121 C40.5971,2.9831 42.9911,3.1811 45.1991,3.8691 L46.3991,10.6751 L46.9331,13.7021 C50.5541,13.8731 54.0521,14.6821 57.3071,16.0151 L62.9831,7.9091 C65.3481,8.1941 67.6781,9.0311 69.7641,10.4911 C71.7861,11.9071 73.3381,13.7391 74.4131,15.7871 L68.6641,23.9561 C71.0411,26.5631 73.0041,29.5811 74.4081,32.9361 L84.1311,31.2191 C85.6031,33.0921 86.6591,35.3321 87.1011,37.8391 C87.5291,40.2701 87.3311,42.6631 86.6441,44.8711 L76.8521,46.5981 L76.8121,46.6021 C76.8121,46.6031 76.8121,46.6041 76.8121,46.6051 L76.8101,46.6051 C76.8101,46.6111 76.8111,46.6171 76.8111,46.6231 C76.6371,50.2411 75.8421,53.7361 74.5091,56.9871 L77.0061,58.7361 L82.6031,62.6551 C82.3191,65.0211 81.4821,67.3511 80.0221,69.4361 C78.6061,71.4581 76.7731,73.0101 74.7261,74.0861 L66.5471,68.3591 C65.7731,69.0621 64.9711,69.7211 64.1421,70.3361 L74.4291,77.5391 C77.5681,76.2791 80.3941,74.1341 82.4781,71.1561 C84.6091,68.1141 85.6671,64.6431 85.7381,61.1891 L78.1141,55.8511 C78.8411,53.6871 79.3431,51.4651 79.6111,49.1571 L88.8761,47.5231 Z" id="Fill-24"></path>
                <path d="M34.5067,47.0168 C33.4437,40.9898 37.4687,35.2418 43.4957,34.1788 C49.5227,33.1168 55.2707,37.1408 56.3337,43.1678 C57.3957,49.1958 53.3717,54.9428 47.3447,56.0058 C41.3167,57.0688 35.5697,53.0438 34.5067,47.0168 M68.1457,41.0858 C65.9327,28.5338 53.9637,20.1538 41.4127,22.3668 C28.8617,24.5798 20.4817,36.5488 22.6947,49.0998 C24.9077,61.6508 36.8757,70.0318 49.4277,67.8178 C61.9787,65.6048 70.3587,53.6368 68.1457,41.0858" id="Fill-26"></path>
                <polygon id="Fill-1" points="353.9594 21.9582 353.9594 26.5482 366.0464 26.5482 366.0464 67.8582 371.2174 67.8582 371.2174 26.5482 383.3044 26.5482 383.3044 21.9582"></polygon>
            </g>
        </g>
    </g>
</svg>