<?xml version="1.0" encoding="utf-8"?>
<!-- Generator: Adobe Illustrator 19.0.0, SVG Export Plug-In . SVG Version: 6.00 Build 0)  -->
<svg version="1.1" id="Layer_1" xmlns="http://www.w3.org/2000/svg" xmlns:xlink="http://www.w3.org/1999/xlink" x="0px" y="0px"
	 width="270.6px" height="41.3px" viewBox="0 0 270.6 41.3" style="enable-background:new 0 0 270.6 41.3;" xml:space="preserve">
<style type="text/css">
	.st0{fill:#FD4F57;}
	.st1{fill:#FD9A2B;}
</style>
<path class="st0" d="M250.1,16.7c-1.2,1.5-2.1,3.1-2.7,4.9c-0.7,1.8-1,3.8-1,5.9c0,1.9,0.3,3.6,0.9,5.3c0.6,1.7,1.5,3.1,2.6,4.5
	c1.1,1.2,2.5,2.2,4.1,3c1.7,0.7,3.5,1.2,5.8,1.2c1.5,0,2.8-0.2,4-0.7c1.2-0.4,2.1-1,2.9-1.6c0.7-0.7,1.3-1.3,1.8-2.1
	c0.5-0.7,0.9-1.4,1.1-2l-1.2-0.7c-1.4,2-3.3,3-5.9,3c-0.9,0-1.8-0.2-2.8-0.7c-0.9-0.4-1.7-1.2-2.5-2.1c-0.8-1-1.3-2.2-1.8-3.8
	c-0.4-1.5-0.7-3.4-0.7-5.6h12.8c1.4,0,2.3-0.2,2.7-0.4c0.3-0.3,0.5-0.9,0.5-1.9c0-1.2-0.2-2.4-0.6-3.7c-0.4-1.2-1-2.3-1.8-3.4
	c-0.8-1-1.9-1.9-3.2-2.5c-1.3-0.7-2.8-1-4.5-1c-2.1,0-4.2,0.4-5.9,1.2C252.9,14.1,251.3,15.3,250.1,16.7z M255.8,16.9
	c0.3-0.7,0.8-1.3,1.4-1.7c0.6-0.4,1.3-0.7,2.2-0.7c1.6,0,2.6,0.7,3.1,2.2c0.4,1.5,0.7,3.5,0.7,6h-8.6c0.1-1.2,0.2-2.2,0.3-3.2
	C255.2,18.5,255.4,17.6,255.8,16.9z"/>
<path class="st0" d="M242.4,5c0-1.2-0.4-2.1-1.2-2.9c-0.8-0.8-1.8-1.2-2.9-1.2c-1.2,0-2.1,0.4-2.9,1.2c-0.8,0.7-1.2,1.7-1.2,2.9
	s0.4,2.1,1.2,2.9c0.7,0.8,1.7,1.2,2.9,1.2c1.1,0,2.1-0.4,2.9-1.2C242,7.2,242.4,6.2,242.4,5z"/>
<path class="st0" d="M231.7,13.8v1.7c0.8,0,1.5,0.1,1.9,0.4c0.4,0.2,0.7,0.9,0.7,1.8v16.1c0,2-0.2,3.4-0.6,4c-0.3,0.7-0.8,1-1.3,1
	v1.6h11.5v-1.6c-0.3,0-0.6-0.1-0.8-0.1c-0.3-0.1-0.5-0.2-0.6-0.6c-0.2-0.3-0.3-0.8-0.4-1.6c-0.1-0.7-0.2-1.6-0.2-2.8
	c0-3.5,0-7.1,0.1-10.6c0.1-3.5,0.1-7.3,0.2-11.1L231.7,13.8z"/>
<path class="st0" d="M228.6,16.5c-0.2-0.8-0.8-1.6-1.5-2.1c-0.7-0.7-1.6-1.2-2.7-1.7c-1.2-0.4-2.5-0.6-4.1-0.6
	c-2.4,0-4.5,0.4-6.4,1.3c-1.9,0.9-3.4,2.1-4.7,3.6c-1.2,1.5-2.1,3.2-2.8,5.2c-0.6,1.9-0.9,4-0.9,6c0,1.7,0.2,3.5,0.7,5
	c0.5,1.6,1.2,3,2.2,4.2c1.1,1.2,2.3,2.1,3.9,2.8c1.6,0.7,3.4,1.1,5.5,1.1c1.8,0,3.3-0.2,4.5-0.8c1.2-0.5,2.3-1.2,3.1-1.9
	c0.8-0.8,1.4-1.7,1.9-2.6c0.5-0.9,0.8-1.7,1.1-2.5l-1.3-0.7c-1.3,2.6-3.4,4-6.3,4c-1.4,0-2.5-0.3-3.5-1c-0.9-0.7-1.6-1.6-2.2-2.7
	c-0.5-1.2-0.9-2.5-1.2-4c-0.2-1.5-0.4-3.1-0.4-4.7c0-1.3,0.2-2.6,0.3-3.7c0.2-1.2,0.6-2.2,1-3.1c0.5-0.9,1.1-1.6,1.6-2.1
	c0.7-0.6,1.4-0.8,2.2-0.8c1.1,0,1.9,0.4,2.2,1.2c0.4,0.7,0.5,1.9,0.5,3.5c0,1,0.4,1.8,1.2,2.4c0.7,0.6,1.6,0.8,2.5,0.8
	c0.9,0,1.8-0.3,2.6-1c0.8-0.7,1.2-1.6,1.2-3.1C229,18,228.9,17.2,228.6,16.5z"/>
<path class="st0" d="M179.2,17c-0.5,1-0.7,1.9-0.7,2.8c0,1.2,0.4,2.1,1.2,2.7c0.8,0.7,1.7,0.9,2.6,0.9c1,0,1.8-0.2,2.6-0.8
	c0.8-0.6,1.2-1.4,1.2-2.5c0-0.6-0.1-1.2-0.2-1.6c-0.2-0.6-0.2-1.1-0.2-1.6c0-0.8,0.3-1.4,1-1.9c0.7-0.6,1.6-0.8,2.7-0.8
	c1.5,0,2.5,0.4,3.1,1.2c0.6,0.8,0.8,2.1,0.8,4v3.9c-3.1,0.8-5.8,1.6-7.8,2.6c-2.1,0.9-3.6,1.8-4.9,2.8c-1.2,0.9-2,1.9-2.5,3
	c-0.5,1-0.7,2.1-0.7,3.1c0,2,0.7,3.5,1.9,4.7c1.2,1.2,3.1,1.7,5.3,1.7c2.3,0,4.2-0.4,5.9-1.3c1.6-0.8,3-2.3,3.9-4.5h0.3
	c0.1,1.2,0.2,2.1,0.3,2.9c0.2,0.8,0.4,1.6,0.6,2.4h7.1v-1.6c-0.5,0-0.9-0.5-1.3-1.6c-0.5-1-0.7-2.5-0.7-4.5c0-2.6,0.1-4.9,0.2-6.9
	c0.1-1.9,0.1-3.8,0.1-5.7c0-1.2-0.2-2.3-0.5-3.3c-0.4-1-1-1.8-1.8-2.6c-0.8-0.7-1.9-1.2-3.2-1.6c-1.3-0.4-3-0.6-4.9-0.6
	c-2.1,0-3.8,0.2-5.3,0.7c-1.5,0.4-2.7,1-3.7,1.7C180.4,15.3,179.6,16.1,179.2,17z M187.4,27.6c0.7-0.6,1.5-1.1,2.5-1.5
	c0.9-0.4,2.1-0.8,3.2-1.1c0,1.1,0,2.1,0,3.3c0,1.2,0,2.3-0.1,3.4c-0.2,2-0.7,3.5-1.5,4.4c-0.9,0.8-1.9,1.3-2.9,1.3
	c-1,0-1.7-0.3-2.3-0.9c-0.7-0.6-0.9-1.6-0.9-3.3c0-1.3,0.2-2.4,0.5-3.2C186.2,29.1,186.7,28.3,187.4,27.6z"/>
<path class="st0" d="M165.3,17.7c-0.2,0.5-0.5,1.1-1,1.6l-7.1,7.3c0.6,0.7,1.2,1.5,1.9,2.6c0.7,1.2,1.3,2.4,2.1,3.8
	c0.7,1.2,1.5,2.6,2.3,4c0.8,1.4,1.6,2.6,2.4,3.6h9.4v-1.6c-0.5,0-1-0.3-1.5-0.8c-0.6-0.7-1.2-1.4-1.8-2.2c-0.7-0.9-1.2-1.8-1.9-2.8
	c-0.6-1-1.2-1.9-1.7-2.7c-1.1-1.6-2-3.1-2.8-4.3c-0.7-1.3-1.4-2.1-1.8-2.6l6.4-6c2.1-1.9,3.8-2.8,5.1-2.8v-1.6h-12.6v1.6
	c0.9,0,1.6,0.2,2.1,0.4c0.4,0.3,0.7,0.8,0.7,1.6C165.5,16.8,165.4,17.2,165.3,17.7z"/>
<path class="st0" d="M148.6,1c-0.8,0.1-1.6,0.2-2.1,0.2v1.6h0.9c1.1,0,1.6,0.7,1.6,2.2v28.8c0,2-0.2,3.4-0.5,4c-0.3,0.7-0.8,1-1.4,1
	v1.6h11.5v-1.6c-0.7,0-1.1-0.3-1.4-1c-0.3-0.7-0.5-2.1-0.5-4c0-5.9,0-10.8,0.1-14.9c0-4.2,0.1-7.6,0.2-10.2c0.1-2.7,0.1-4.7,0.2-6
	c0-1.2,0-2.1,0-2.3c0-0.1-0.1-0.2-0.2-0.2C156.9,0,156.7,0,156.5,0c0,0-0.1,0-0.2,0c-0.1,0-0.2,0-0.3,0.1c-0.5,0.1-1.2,0.2-2,0.3
	c-0.9,0.2-1.7,0.2-2.6,0.3C150.4,0.8,149.5,0.9,148.6,1z"/>
<path class="st0" d="M121.6,16.6c-1.2,1.4-2.1,3.1-2.8,4.9c-0.7,1.8-1.1,3.9-1.1,5.9c0,2.2,0.3,4.2,0.9,5.9c0.7,1.7,1.5,3.1,2.6,4.3
	c1.2,1.2,2.4,2.1,3.9,2.6c1.5,0.7,3.1,0.9,4.9,0.9c2.2,0,4.2-0.4,5.9-1.2c1.8-0.8,3.3-1.9,4.5-3.3c1.3-1.3,2.2-3,3-4.9
	c0.7-1.8,1-3.9,1-6.1c0-2.1-0.2-4-0.8-5.7c-0.5-1.6-1.3-3.1-2.4-4.3c-1.1-1.2-2.4-2.1-4-2.8c-1.6-0.7-3.4-1-5.4-1
	c-2.1,0-4.1,0.4-5.8,1.2C124.3,14.1,122.8,15.2,121.6,16.6z M127.3,16.9c0.7-1.5,1.9-2.2,3.4-2.2c0.9,0,1.6,0.3,2.3,0.8
	c0.7,0.5,1.2,1.4,1.7,2.6c0.4,1.2,0.7,2.9,1,4.9c0.2,2.1,0.3,4.6,0.3,7.6c0,2.7-0.3,4.7-1,6c-0.6,1.3-1.6,2-3.1,2
	c-0.8,0-1.6-0.2-2.3-0.6c-0.7-0.4-1.3-1.2-1.8-2.2c-0.5-1.2-0.9-2.6-1.2-4.5c-0.2-2-0.4-4.5-0.4-7.5
	C126.1,20.6,126.4,18.3,127.3,16.9z"/>
<path class="st0" d="M108,12.9v1.6c0.9,0,1.6,0.2,2.3,0.7c0.6,0.5,0.8,1.1,0.8,1.8c0,0.6-0.1,1.3-0.3,2.2c-0.2,0.9-0.5,1.9-1,3
	c-0.3,1-0.9,2.4-1.5,4.1c-0.7,1.8-1.3,3.6-1.9,5.5h-0.2c-0.2-1-0.6-2.1-0.9-3.3c-0.4-1.2-0.8-2.4-1.3-3.6c-0.4-1.2-0.9-2.4-1.4-3.5
	c-0.5-1.2-0.9-2.1-1.3-3c-0.2-0.4-0.3-0.7-0.5-1.1c-0.1-0.3-0.2-0.7-0.2-1.2c0-0.6,0.2-1,0.7-1.2c0.5-0.3,1-0.4,1.7-0.4h0.8v-1.6
	H89.6v1.6c0.3,0,0.8,0.4,1.5,1.3c0.6,0.9,1.4,2.5,2.4,4.6c1.5,3.2,3,6.5,4.5,9.9c1.5,3.5,2.9,6.8,4.2,10.1h3.7
	c1.2-3.1,2.3-6.4,3.5-9.6c1.3-3.2,2.6-6.4,4-9.6c1-2.3,1.8-4,2.5-5.1c0.7-1.1,1.2-1.6,1.8-1.6v-1.6H108z"/>
<path class="st0" d="M85.7,0.1c-0.6,0.1-1.2,0.2-2.1,0.3c-0.9,0.2-1.8,0.2-2.7,0.3C80,0.8,79.1,0.9,78.1,1c-0.9,0.1-1.7,0.2-2.3,0.2
	v1.6h1.4c1.1,0,1.6,0.7,1.6,2.2v9.1c-1.4-1.3-3.3-2.1-5.7-2.1c-1.7,0-3.4,0.4-4.9,1.2c-1.6,0.9-2.9,2.1-4,3.5
	c-1.2,1.4-2,3.1-2.6,5.1c-0.7,2.1-1,4.2-1,6.4c0,2.2,0.3,4.2,0.8,5.8c0.6,1.6,1.2,3.1,2.2,4c0.9,1.1,2,1.9,3.2,2.4
	c1.2,0.6,2.5,0.8,3.9,0.8c2.3,0,4.3-0.7,5.9-1.9c1.6-1.2,2.6-3.1,3.2-5.4h0.4c0,1.6,0.1,2.9,0.3,3.9c0.2,0.9,0.4,1.7,0.7,2.6h7v-1.6
	c-0.2,0-0.6-0.1-0.7-0.2c-0.2-0.2-0.4-0.6-0.7-1.3c-0.2-0.7-0.2-1.7-0.3-3c-0.1-1.3-0.2-3.1-0.2-5.3c0-9.2,0.1-16.2,0.2-20.9
	c0.2-4.7,0.2-7.3,0.2-7.8c0-0.1-0.1-0.2-0.2-0.2C86.5,0,86.4,0,86.2,0c-0.2,0-0.2,0-0.3,0C85.8,0,85.7,0,85.7,0.1z M69.5,21.6
	c0.3-1.4,0.7-2.6,1.2-3.5c0.5-1,1.1-1.8,1.8-2.3c0.7-0.6,1.5-0.9,2.4-0.9c1.6,0,2.9,0.7,3.9,1.9v11.7c0,3.1-0.4,5.1-1.2,6.3
	c-0.8,1.2-1.9,1.7-3.2,1.7c-1.5,0-2.7-0.8-3.7-2.5c-1-1.8-1.5-4.5-1.5-8.1C69.1,24.4,69.3,22.9,69.5,21.6z"/>
<path class="st0" d="M61,38.8c-0.6,0-1-0.1-1.4-0.2c-0.3-0.2-0.8-0.6-1.2-1.2c-0.5-0.7-1.1-1.8-1.7-3.3c-0.7-1.5-1.7-3.5-2.7-6.1
	L42,0.5h-3.3l-8.4,22.2c-1.4,3.5-2.5,6.4-3.5,8.5c-1,2.1-1.8,3.7-2.6,4.9c-0.7,1.2-1.4,1.9-2,2.2c-0.6,0.4-1.2,0.6-1.6,0.6v1.6h12.5
	v-1.6c-1.2,0-2.1-0.2-2.8-0.7c-0.7-0.4-1.1-1.2-1.1-2.3c0-1.1,0.3-2.2,0.8-3.5l1.2-3.1h12.9l2.6,6.3c0.2,0.5,0.2,0.9,0.2,1.3
	c0,0.7-0.3,1.2-0.9,1.5c-0.7,0.3-1.8,0.5-3.5,0.5v1.6H61V38.8z M38.7,15.3c0.3,1.2,0.8,2.5,1.4,4l3,7.3H32.3l2.9-7.5
	c0.4-1.2,0.9-2.5,1.3-3.6c0.5-1.2,0.8-2.2,1-3.1h0.3C37.9,13.1,38.3,14,38.7,15.3z"/>
<path class="st1" d="M23.3,16.7c0-1.2-0.5-2.3-1.4-3.3C21,12.5,19.8,12,18.1,12c-2.7,0-5.2,0.7-7.3,2c-2.3,1.2-4.2,2.8-5.8,4.8
	c-1.6,2-2.8,4.1-3.6,6.4C0.4,27.6,0,29.9,0,32c0,1.2,0.2,2.5,0.5,3.6c0.3,1.2,0.9,2.1,1.6,3c0.7,0.7,1.6,1.4,2.6,1.9
	C5.8,41,7,41.2,8.6,41.2c1,0,2.1-0.2,3.1-0.5c1.1-0.4,2.1-0.9,3.1-1.6c0.9-0.7,1.8-1.5,2.6-2.6c0.8-1.1,1.5-2.3,2.1-3.7l-1.2-0.7
	c-0.5,1.2-1.4,2.1-2.6,2.9c-1.2,0.7-2.5,1.2-3.7,1.2c-0.6,0-1.2-0.2-1.8-0.3c-0.5-0.2-1-0.6-1.4-1.1c-0.4-0.5-0.7-1.1-1.1-1.9
	c-0.2-0.7-0.3-1.6-0.3-2.8c0-0.9,0.1-1.7,0.1-2.5c0.1-0.8,0.2-1.6,0.2-2.4c0.4,0,0.7,0,1.2,0c0.3,0,0.7,0,1.1,0
	c2.8,0,5.1-0.2,6.8-0.8c1.7-0.6,3.1-1.2,4-2.1c0.9-0.8,1.6-1.7,1.9-2.7C23.1,18.4,23.3,17.5,23.3,16.7z M11.1,16.8
	c1.2-1.4,2.5-2.1,4-2.1c0.7,0,1.2,0.2,1.5,0.7c0.3,0.4,0.5,1,0.5,1.6c0,0.7-0.2,1.4-0.5,2.1c-0.4,0.7-1,1.4-1.6,2.1
	c-0.7,0.7-1.6,1.2-2.7,1.6c-1.2,0.5-2.4,0.7-4,0.7C9.1,20.5,10.1,18.3,11.1,16.8z"/>
</svg>
