<?xml version="1.0" encoding="UTF-8"?>
<svg width="668px" height="152px" viewBox="0 0 668 152" version="1.1" xmlns="http://www.w3.org/2000/svg" xmlns:xlink="http://www.w3.org/1999/xlink">
    <!-- Generator: Sketch 61.1 (89650) - https://sketch.com -->
    <title>Pipedrive_full_logo_dark</title>
    <desc>Created with Sketch.</desc>
    <g id="Page-1" stroke="none" stroke-width="1" fill="none" fill-rule="evenodd">
        <g id="Pipedrive_full_logo_dark" fill="#26292C" fill-rule="nonzero">
            <g id="Clip-8" transform="translate(93.000000, 32.000000)">
                <path d="M34.0461,64.3962 C34.0461,65.7153 34.5549,66.2465 35.8708,66.2465 L44.0555,66.2465 L44.0555,87.1314 L22.7823,87.1314 C14.2467,87.1314 10.264,83.0678 10.264,74.3207 L10.264,23.5118 C10.264,22.1218 9.8166,21.6703 8.4393,21.6703 L0.2546,21.6703 L0.2546,0.5995 L21.5015,0.5995 C29.9318,0.5995 34.0461,4.7959 34.0461,13.4102 L34.0461,64.3962 Z" id="path-3"></path>
            </g>
            <g id="Clip-11" transform="translate(132.000000, 30.000000)">
                <path d="M52.3056,70.1951 C61.8238,70.1951 71.412,62.7849 71.412,46.1939 C71.412,31.648 63.8677,21.8828 52.639,21.8828 C43.4806,21.8828 33.6993,28.3103 33.6993,46.3621 C33.6993,57.8271 39.5417,70.1951 52.3056,70.1951 Z M57.1568,0.6438 C80.0968,0.6438 95.5187,18.8196 95.5187,45.8752 C95.5187,72.5058 79.2809,91.0977 56.0339,91.0977 C44.9631,91.0977 37.8399,86.3524 34.1467,82.9173 C34.173,83.7318 34.1993,84.6437 34.1993,85.6176 L34.1993,121.73009 L10.4084,121.73009 L10.4084,25.5126 C10.4084,24.1138 9.961,23.6712 8.5838,23.6712 L0.4078,23.6712 L0.4078,2.6003 L20.3652,2.6003 C29.5499,2.6003 31.8922,7.2749 32.3308,10.8782 C36.0766,6.6994 43.7876,0.6438 57.1568,0.6438 Z" id="path-5"></path>
            </g>
            <g id="Clip-14" transform="translate(228.000000, 30.000000)">
                <path d="M26.3256,33.3859 L57.9064,33.3859 C56.9327,25.5773 51.4236,20.0794 44.2652,20.0794 C35.3524,20.0794 28.9047,24.8956 26.3256,33.3859 Z M44.2652,0.6464 C67.1087,0.6464 82.4605,17.1844 82.4605,41.7965 C82.4605,44.2931 81.9955,49.4014 81.9517,49.6139 L81.8201,51.1898 L25.4396,51.1898 C27.5011,62.6991 36.2209,70.0384 48.1339,70.0384 C60.5469,70.0384 69.9422,61.3003 70.0475,61.2206 L71.5826,59.7509 L81.9429,77.0945 L80.9867,78.0507 C80.4428,78.5819 67.6438,91.1004 46.6952,91.1004 C20.0621,91.1004 0.7363,72.0747 0.7363,45.8778 C0.7363,19.2472 18.6497,0.6464 44.2652,0.6464 Z" id="path-7"></path>
            </g>
            <g id="Clip-17" transform="translate(311.000000, 0.000000)">
                <path d="M43.535,100.1951 C52.6847,100.1951 62.4747,93.7765 62.4747,75.7158 C62.4747,63.8436 56.7112,51.8828 43.8596,51.8828 C32.5256,51.8828 24.9111,61.5152 24.9111,75.8752 C24.9111,90.6425 32.2273,100.1951 43.535,100.1951 Z M85.9323,96.3971 C85.9323,97.7162 86.4411,98.2474 87.7569,98.2474 L95.7662,98.2474 L95.7662,119.1323 L75.1685,119.1323 C66.2732,119.1323 63.8783,114.4047 63.3958,110.6686 C59.7026,114.9536 52.1408,121.0977 39.026,121.0977 C16.0773,121.0977 0.6553,102.9308 0.6553,75.8752 C0.6553,49.2445 16.7527,30.6438 39.8243,30.6438 C51.6232,30.6438 58.4745,34.8491 61.9835,38.0451 L61.9835,22.9414 C61.9835,21.5426 61.5361,21.0999 60.1588,21.0999 L51.9741,21.0999 L51.9741,0.0203 L73.221,0.0203 C81.7654,0.0203 85.9323,4.2167 85.9323,12.831 L85.9323,96.3971 Z" id="path-9"></path>
            </g>
            <g id="Clip-20" transform="translate(402.000000, 31.000000)">
                <path d="M57.672,0.4574 C59.5756,0.4574 61.5932,0.785 61.6634,0.8027 L63.1109,1.0506 L63.1109,24.9013 L61.1283,24.6003 C61.0932,24.5914 59.1106,24.2993 56.3824,24.2993 C48.689,24.2993 39.1796,28.5488 35.6005,40.4919 C34.4776,44.5556 33.8986,48.9468 33.8986,53.5062 L33.8986,88.1314 L10.1253,88.1314 L10.1253,24.5118 C10.1253,23.1129 9.6691,22.6703 8.2918,22.6703 L0.1159,22.6703 L0.1159,1.5995 L20.5557,1.5995 C28.9773,1.5995 33.267,5.5834 33.267,13.4274 L33.267,15.4017 C38.6708,6.2209 47.7766,0.4574 57.672,0.4574 Z" id="path-11"></path>
            </g>
            <g id="Clip-23" transform="translate(467.000000, 32.000000)">
                <path d="M31.9515,64.3962 C31.9515,65.7153 32.4603,66.2465 33.7761,66.2465 L41.9696,66.2465 L41.9696,87.1314 L20.714,87.1314 C12.1608,87.1314 8.1694,83.0678 8.1694,74.3207 L8.1694,23.5118 C8.1694,22.1218 7.7307,21.6703 6.3447,21.6703 L0.204,21.6703 L0.204,0.5995 L19.4244,0.5995 C27.8547,0.5995 31.9515,4.7959 31.9515,13.4102 L31.9515,64.3962 Z" id="path-13"></path>
            </g>
            <g id="Clip-26" transform="translate(501.000000, 32.000000)">
                <path d="M87.7077,0.6012 L87.7077,21.672 L84.0583,21.672 C82.1986,21.672 81.5845,22.3095 81.1459,23.4781 L57.1532,87.1332 L30.4148,87.1332 L6.4221,23.4781 C5.9835,22.3095 5.387,21.672 3.5272,21.672 L0.027,21.672 L0.027,0.6012 L13.5191,0.6012 C21.0283,0.6012 24.8706,3.1156 27.2479,9.5519 L42.7489,53.2251 C43.3366,54.8453 43.8717,56.6868 44.3191,58.4309 C44.749,56.6868 45.249,54.8718 45.7841,53.2517 L61.285,9.5608 C63.6361,3.1952 67.61,0.6012 75.0227,0.6012 L87.7077,0.6012 Z" id="path-15"></path>
            </g>
            <g id="Clip-29" transform="translate(586.000000, 30.000000)">
                <path d="M25.7108,33.3859 L57.2916,33.3859 C56.3179,25.5773 50.8175,20.0794 43.6417,20.0794 C34.7376,20.0794 28.3162,24.8956 25.7108,33.3859 Z M43.6417,0.6464 C66.5027,0.6464 81.8632,17.1844 81.8632,41.7965 C81.8632,44.2931 81.3807,49.4014 81.3544,49.6139 L81.2228,51.1898 L24.8248,51.1898 C26.8863,62.6991 35.6061,70.0384 47.5279,70.0384 C59.897,70.0384 69.3449,61.3003 69.4239,61.2206 L71.0029,59.7509 L81.3369,77.0945 L80.3719,78.0507 C79.8368,78.5819 67.029,91.1004 46.0716,91.1004 C19.4385,91.1004 0.1303,72.0747 0.1303,45.8778 C0.1303,19.2472 18.0349,0.6464 43.6417,0.6464 Z" id="path-17"></path>
            </g>
            <g id="Clip-32" transform="translate(104.000000, 0.000000)">
                <polygon id="path-19" points="0.2255 0.0265 21.4197 0.0265 21.4197 22.5581 0.2255 22.5581"></polygon>
            </g>
            <g id="Clip-35" transform="translate(476.000000, 0.000000)">
                <polygon id="path-21" points="0.1335 0.0265 21.3365 0.0265 21.3365 22.5581 0.1335 22.5581"></polygon>
            </g>
            <g id="Clip-5" transform="translate(0.000000, 30.000000)">
                <path d="M33.3002,46.3621 C33.3002,57.8271 39.1164,70.1951 51.9154,70.1951 C61.4071,70.1951 71.0042,62.7849 71.0042,46.1939 C71.0042,31.648 63.4599,21.8828 52.2312,21.8828 C43.0815,21.8828 33.3002,28.3103 33.3002,46.3621 Z M56.7402,0.6438 C79.6889,0.6438 95.1197,18.8196 95.1197,45.8752 C95.1197,72.5058 78.8643,91.0977 55.6261,91.0977 C44.5465,91.0977 37.4496,86.3524 33.7388,82.9173 C33.7652,83.7318 33.7827,84.6437 33.7827,85.6176 L33.7827,121.73009 L10.00936,121.73009 L10.00936,25.5126 C10.00936,24.1138 9.56197,23.6712 8.17592,23.6712 L0,23.6712 L0,2.6003 L19.94855,2.6003 C29.1333,2.6003 31.4843,7.2749 31.9317,10.8782 C35.66,6.6994 43.3885,0.6438 56.7402,0.6438 Z" id="path-23"></path>
            </g>
        </g>
    </g>
</svg>