<?xml version="1.0" encoding="UTF-8"?>
<svg width="150px" height="40px" viewBox="0 0 150 40" version="1.1" xmlns="http://www.w3.org/2000/svg" xmlns:xlink="http://www.w3.org/1999/xlink">
    <!-- Generator: Sketch 46.1 (44463) - http://www.bohemiancoding.com/sketch -->
    <title>Logo</title>
    <desc>Created with Sketch.</desc>
    <defs></defs>
    <g id="1920" stroke="none" stroke-width="1" fill="none" fill-rule="evenodd">
        <g id="PlatformNav_1920" transform="translate(-40.000000, -23.000000)">
            <g id="Header">
                <g id="Logo" transform="translate(40.000000, 23.000000)">
                    <polygon id="Fill-1" fill="#96285F" points="0 3.92156863e-05 0 31.8557255 15.865625 31.8557255 23.7992188 39.8192549 23.7992188 31.8557255 31.7320312 31.8557255 31.7320312 3.92156863e-05"></polygon>
                    <path d="M23.3335547,16.7386275 C23.0253516,16.7652941 22.7351172,16.7429412 22.3843359,16.6531373 L22.8843359,22.397451 C20.9655859,21.8633333 18.9796484,21.6817647 16.9632422,21.8582353 C14.9421484,22.0347059 13.0148047,22.5590196 11.2159766,23.4198039 L10.7202734,17.7135294 C10.3780859,17.8347059 10.1179297,17.8927451 9.79839844,17.9205882 C7.82574219,18.0931373 6.08042969,16.6217647 5.90894531,14.6405882 C5.73707031,12.6594118 7.20191406,10.9072549 9.17652344,10.7347059 L9.17730469,10.7347059 C9.48550781,10.7080392 9.79253906,10.7198039 10.0890234,10.7707843 C10.5773047,10.855098 11.0523047,10.8778431 11.4987891,10.8390196 C13.0851172,10.7005882 14.4726172,9.92411765 15.4015234,8.65862745 C16.0136328,7.83862745 16.9468359,7.31784314 17.9632422,7.22882353 C19.9370703,7.05705882 21.6816016,8.52843137 21.8542578,10.5096078 C21.9847266,12.0115686 21.1468359,13.4370588 19.8194922,14.075098 L21.1921484,15.4543137 C22.5819922,14.564902 23.5198828,13.0727451 23.7058203,11.4209804 C24.8085547,11.677451 25.6741797,12.6237255 25.7780859,13.8162745 C25.9054297,15.2986275 24.8097266,16.6096078 23.3335547,16.7386275 M27.6441016,13.6535294 C27.4515234,11.4358824 25.7046484,9.72137255 23.5784766,9.49705882 C22.9425391,6.92411765 20.5132422,5.11980392 17.8007422,5.35666667 C16.2562109,5.49156863 14.8355078,6.28372549 13.8991797,7.53705882 C13.2894141,8.36764706 12.3784766,8.8754902 11.3362891,8.96647059 C11.0495703,8.99156863 10.7358984,8.9754902 10.4046484,8.91823529 C9.94917969,8.84019608 9.48238281,8.82137255 9.01480469,8.86254902 L9.01441406,8.86254902 C6.01246094,9.1245098 3.78277344,11.7896078 4.04410156,14.8033333 C4.27691406,17.4978431 6.42378906,19.5727451 9.02261719,19.7943137 L9.60113281,26.4782353 L10.8788672,25.7252941 C12.7937109,24.5962745 14.8952734,23.9260784 17.1261328,23.7311765 C19.3526953,23.5366667 21.5351172,23.8315686 23.6128516,24.6084314 L24.9999609,25.1280392 L24.4198828,18.4327451 C26.4409766,17.8198039 27.8327734,15.8476471 27.6441016,13.6535294" id="Fill-2" fill="#FEFEFE"></path>
                    <path d="M149.460039,17.1995294 C149.337773,16.8630588 149.147148,16.5638431 148.886602,16.3018824 C148.625273,16.0383529 148.294023,15.8050196 147.892461,15.5956078 C147.488945,15.3869804 147.003398,15.1756078 146.424883,14.9599216 C146.078008,14.8403137 145.784648,14.7226667 145.54207,14.6077647 C145.301445,14.4936471 145.108477,14.3803137 144.958477,14.2650196 C144.813164,14.1501176 144.708867,14.0273725 144.648711,13.890902 C144.588164,13.7571765 144.557305,13.6030588 144.557305,13.4277647 C144.557305,13.0783529 144.712383,12.8199216 145.020195,12.6516863 C145.327617,12.4838431 145.730352,12.3995294 146.224883,12.3995294 C146.774492,12.3995294 147.25457,12.4489412 147.671367,12.5512941 C148.087773,12.6516863 148.42957,12.763451 148.692852,12.8842353 L149.140117,10.9077647 C148.857695,10.7999216 148.434648,10.688549 147.872148,10.5752157 C147.309648,10.4603137 146.720586,10.4026667 146.104961,10.4026667 C144.884258,10.4026667 143.923711,10.6830588 143.213555,11.2407059 C142.501836,11.7971765 142.149102,12.5607059 142.149102,13.528549 C142.149102,14.0273725 142.225273,14.4473725 142.378008,14.7893333 C142.533086,15.130902 142.742852,15.4246275 143.009648,15.6658039 C143.27918,15.9081569 143.595586,16.1195294 143.965898,16.3018824 C144.333477,16.4822745 144.739727,16.6544314 145.180742,16.8156078 C145.903398,17.0846275 146.424102,17.3336471 146.737383,17.5622745 C147.052617,17.7905098 147.21043,18.0791373 147.21043,18.4277647 C147.21043,18.8046275 147.061992,19.0712941 146.766289,19.2250196 C146.47293,19.3799216 146.00418,19.4567843 145.359648,19.4567843 C144.720586,19.4567843 144.146758,19.3893333 143.644414,19.2552157 C143.158086,19.1258039 142.736602,18.988549 142.382695,18.8458039 L141.930352,20.8697255 C142.158477,20.9646275 142.551055,21.0869804 143.111992,21.2407059 C143.675664,21.3944314 144.415898,21.4724706 145.339727,21.4724706 C146.720586,21.4724706 147.780352,21.2156078 148.523711,20.6975686 C149.269023,20.1799216 149.637383,19.4167843 149.637383,18.408549 C149.637383,17.9371765 149.580352,17.5344314 149.460039,17.1995294 L149.460039,17.1995294 Z M141.036992,10.8399216 L141.043633,10.8061961 C140.92332,10.7654118 140.76043,10.7230588 140.56082,10.676 C140.358477,10.6289412 140.153398,10.5889412 139.936602,10.5544314 C139.722148,10.521098 139.510039,10.4948235 139.295586,10.4740392 C139.081133,10.4544314 138.895195,10.4442353 138.732695,10.4442353 C137.875273,10.4442353 137.097148,10.521098 136.393633,10.676 C135.690117,10.8301176 135.10418,10.9936471 134.637383,11.170902 L134.637383,21.2116863 L137.065898,21.2116863 L137.065898,12.763451 C137.186211,12.7218824 137.397539,12.6748235 137.699492,12.6214902 C138.001055,12.568549 138.285039,12.5407059 138.55457,12.5407059 C139.022539,12.5407059 139.432695,12.5775686 139.786992,12.6516863 C140.123711,12.7230588 140.389336,12.7877647 140.586602,12.8524706 L141.036992,10.8399216 Z M125.698711,14.8991373 C125.740898,14.590902 125.813945,14.2881569 125.919805,13.9924706 C126.028008,13.6963922 126.17918,13.4344314 126.372539,13.2065882 C126.567461,12.9783529 126.803398,12.7924706 127.084258,12.6516863 C127.368633,12.5097255 127.695977,12.4407059 128.069805,12.4407059 C128.429961,12.4407059 128.742461,12.5038431 129.002617,12.6324706 C129.264336,12.7595294 129.485039,12.9348235 129.663555,13.1563922 C129.84832,13.3771765 129.98543,13.6403137 130.077617,13.9426667 C130.170977,14.2442353 130.219023,14.5638431 130.219023,14.8991373 L125.698711,14.8991373 Z M131.433086,11.7548235 C130.624102,10.8532549 129.496758,10.4026667 128.049883,10.4026667 C127.433477,10.4026667 126.830742,10.521098 126.24207,10.756 C125.651445,10.9912941 125.12957,11.3403137 124.674883,11.8054118 C124.218633,12.2681569 123.853008,12.8497255 123.57957,13.5497255 C123.307695,14.2477647 123.169023,15.0607059 123.169023,15.988549 C123.169023,16.7830588 123.276445,17.5112941 123.490117,18.1752157 C123.704961,18.8422745 124.031523,19.4199216 124.472539,19.9116863 C124.915117,20.4018824 125.480352,20.7854118 126.16043,21.0599216 C126.844414,21.3348235 127.647539,21.4724706 128.573711,21.4724706 C128.933477,21.4724706 129.28582,21.4540392 129.63543,21.4132549 C129.98543,21.3732549 130.31043,21.3226667 130.610039,21.2622745 C130.912383,21.201098 131.178789,21.1332549 131.413945,21.0599216 C131.645586,20.9873725 131.824883,20.9171765 131.961602,20.8501176 L131.524492,18.9007059 C131.258086,19.003451 130.912383,19.1018824 130.489336,19.1936471 C129.999102,19.3030588 129.461602,19.3556078 128.872539,19.3556078 C127.866289,19.3556078 127.103008,19.1242353 126.57332,18.6603137 C126.043633,18.1975686 125.747148,17.5422745 125.677227,16.6948235 L132.608867,16.6948235 C132.621367,16.5603137 132.630742,16.408549 132.637773,16.241098 C132.644414,16.0732549 132.64832,15.9214902 132.64832,15.7873725 C132.64832,13.9999216 132.245195,12.6548235 131.433086,11.7548235 L131.433086,11.7548235 Z M108.705742,19.3767843 C108.319414,19.4567843 107.74832,19.4975686 106.999492,19.4975686 C106.38582,19.4975686 105.897148,19.3869804 105.534258,19.1638431 C105.170977,18.9418824 104.992461,18.543451 104.992461,17.9658039 C104.992461,17.6689412 105.058867,17.4238431 105.190117,17.2281569 C105.326836,17.0340392 105.503008,16.8822745 105.722539,16.776 C105.944023,16.6677647 106.193242,16.5940392 106.46668,16.5540392 C106.740508,16.5124706 107.011992,16.4916863 107.280742,16.4916863 C107.589727,16.4916863 107.870586,16.5124706 108.125273,16.5540392 C108.378008,16.5940392 108.57293,16.6348235 108.705742,16.6740392 L108.705742,19.3767843 Z M110.84793,12.8736471 C110.705352,12.3552157 110.471758,11.9152157 110.14207,11.5528627 C109.812773,11.1901176 109.37918,10.9077647 108.828008,10.7061961 C108.280352,10.5042353 107.601445,10.4026667 106.799102,10.4026667 C106.128398,10.4026667 105.500273,10.4571765 104.909258,10.5654118 C104.324102,10.6720784 103.878789,10.7791373 103.569805,10.8858039 L104.002617,12.8167843 C104.274883,12.728549 104.611211,12.6497255 105.012773,12.5814902 C105.480352,12.4991373 105.995977,12.4603137 106.560039,12.4603137 C106.974492,12.4603137 107.319414,12.5136471 107.592461,12.6214902 C107.865898,12.7301176 108.089336,12.8803137 108.255742,13.0756078 C108.424102,13.2697255 108.538555,13.496 108.605742,13.750902 C108.675664,14.0061961 108.705742,14.2763922 108.705742,14.5575686 L108.705742,14.9599216 C108.373711,14.8799216 108.058086,14.8222745 107.764727,14.7893333 C107.46707,14.7556078 107.187383,14.7387451 106.919414,14.7387451 C106.342852,14.7387451 105.79207,14.7944314 105.261211,14.9097255 C104.733086,15.0238431 104.268242,15.2140392 103.867461,15.4744314 C103.46668,15.7363922 103.149102,16.0767843 102.911992,16.4916863 C102.675664,16.9101176 102.56043,17.4199216 102.56043,18.0269804 C102.56043,18.6579608 102.663164,19.1889412 102.87293,19.6183529 C103.07957,20.0493333 103.36668,20.3987451 103.735039,20.6661961 C104.103789,20.9363922 104.549883,21.1301176 105.071758,21.2528627 C105.592852,21.3732549 106.169805,21.4328627 106.799102,21.4328627 C107.74832,21.4328627 108.603398,21.3752157 109.361602,21.2622745 C110.11707,21.1477647 110.682305,21.0493333 111.056523,20.9693333 L111.056523,14.5767843 C111.056523,13.9599216 110.984648,13.3912941 110.84793,12.8736471 L110.84793,12.8736471 Z M81.2307422,19.3767843 C80.8401172,19.4567843 80.2717578,19.4975686 79.5217578,19.4975686 C78.9061328,19.4975686 78.4158984,19.3869804 78.0537891,19.1638431 C77.6940234,18.9418824 77.5135547,18.543451 77.5135547,17.9658039 C77.5135547,17.6689412 77.5799609,17.4238431 77.7143359,17.2281569 C77.8494922,17.0340392 78.0264453,16.8822745 78.2475391,16.776 C78.4674609,16.6677647 78.7131641,16.5940392 78.9893359,16.5540392 C79.2643359,16.5124706 79.5362109,16.4916863 79.8018359,16.4916863 C80.1108203,16.4916863 80.3924609,16.5124706 80.6448047,16.5540392 C80.9002734,16.5940392 81.0936328,16.6348235 81.2307422,16.6740392 L81.2307422,19.3767843 Z M83.3698047,12.8736471 C83.2276172,12.3552157 82.9936328,11.9152157 82.6635547,11.5528627 C82.3369922,11.1901176 81.8991016,10.9077647 81.3483203,10.7061961 C80.8010547,10.5042353 80.1252734,10.4026667 79.3225391,10.4026667 C78.6510547,10.4026667 78.0205859,10.4571765 77.4330859,10.5654118 C76.8475391,10.6720784 76.4014453,10.7791373 76.0920703,10.8858039 L76.5237109,12.8171765 C76.7963672,12.728549 77.1338672,12.6497255 77.5334766,12.5814902 C78.0014453,12.4991373 78.5170703,12.4603137 79.0815234,12.4603137 C79.4944141,12.4603137 79.8393359,12.5136471 80.1155078,12.6214902 C80.3893359,12.7301176 80.6100391,12.8803137 80.7768359,13.0756078 C80.9440234,13.2697255 81.0627734,13.496 81.1283984,13.750902 C81.1959766,14.0061961 81.2307422,14.2763922 81.2307422,14.5575686 L81.2307422,14.9599216 C80.8936328,14.8799216 80.5791797,14.8222745 80.2854297,14.7893333 C79.9912891,14.7556078 79.7088672,14.7387451 79.4416797,14.7387451 C78.8666797,14.7387451 78.3143359,14.7944314 77.7830859,14.9097255 C77.2565234,15.0238431 76.7905078,15.2140392 76.3877734,15.4744314 C75.9873828,15.7363922 75.6682422,16.0767843 75.4330859,16.4916863 C75.2006641,16.9101176 75.0826953,17.4199216 75.0826953,18.0269804 C75.0826953,18.6579608 75.1881641,19.1889412 75.3955859,19.6183529 C75.6026172,20.0493333 75.8869922,20.3987451 76.2580859,20.6661961 C76.6260547,20.9363922 77.0705859,21.1301176 77.5944141,21.2528627 C78.1170703,21.3732549 78.6916797,21.4328627 79.3225391,21.4328627 C80.2717578,21.4328627 81.1241016,21.3752157 81.8823047,21.2622745 C82.6377734,21.1477647 83.2045703,21.0493333 83.5791797,20.9693333 L83.5791797,14.5767843 C83.5791797,13.9599216 83.5080859,13.3912941 83.3698047,12.8736471 L83.3698047,12.8736471 Z M67.9600391,18.9724706 C67.6873828,19.0756078 67.3764453,19.1638431 67.0194141,19.2352157 C66.6186328,19.3156078 66.2108203,19.3556078 65.7936328,19.3556078 C64.6826953,19.3556078 63.8944141,19.0505098 63.4244922,18.4399216 C62.9561328,17.8273725 62.7221484,16.9956078 62.7221484,15.9469804 C62.7221484,14.8591373 62.9698047,14.016 63.4643359,13.4175686 C63.9600391,12.8199216 64.6826953,12.5207059 65.6350391,12.5207059 C66.0358203,12.5207059 66.4143359,12.5607059 66.7690234,12.6418824 C67.1233203,12.7218824 67.4412891,12.8242353 67.7244922,12.9438431 L68.1768359,10.9207059 C67.3116016,10.5767843 66.3991016,10.4026667 65.4346484,10.4026667 C64.6307422,10.4026667 63.9061328,10.5446275 63.2635547,10.8277647 C62.6221484,11.108549 62.0776172,11.5003137 61.6276172,11.9967843 C61.1791797,12.4944314 60.8334766,13.0830588 60.5932422,13.7603137 C60.3530078,14.4391373 60.2315234,15.168549 60.2315234,15.9469804 C60.2315234,16.7422745 60.3393359,17.4771765 60.5541797,18.156 C60.7651172,18.8348235 61.0905078,19.4199216 61.5256641,19.9116863 C61.9604297,20.4018824 62.5119922,20.7854118 63.1741016,21.0599216 C63.8358203,21.3348235 64.6170703,21.4724706 65.5143359,21.4724706 C66.0893359,21.4724706 66.6487109,21.4199216 67.1928516,21.3124706 C67.7299609,21.2054118 68.1334766,21.0854118 68.4026172,20.9516863 L67.9600391,18.9724706 Z M46.9522266,17.1995294 C46.8326953,16.8630588 46.6412891,16.5638431 46.3803516,16.3018824 C46.1205859,16.0383529 45.7877734,15.8050196 45.3854297,15.5956078 C44.9850391,15.3869804 44.4975391,15.1756078 43.9205859,14.9599216 C43.5729297,14.8403137 43.2783984,14.7226667 43.0358203,14.6077647 C42.7948047,14.4936471 42.6006641,14.3803137 42.4533984,14.2650196 C42.3049609,14.1501176 42.2026172,14.0273725 42.1420703,13.890902 C42.0826953,13.7571765 42.0506641,13.6030588 42.0506641,13.4277647 C42.0506641,13.0783529 42.2069141,12.8199216 42.5139453,12.6516863 C42.8221484,12.4838431 43.2241016,12.3995294 43.7186328,12.3995294 C44.2678516,12.3995294 44.7518359,12.4489412 45.1635547,12.5512941 C45.5807422,12.6516863 45.9209766,12.763451 46.1905078,12.8842353 L46.6330859,10.9077647 C46.3526172,10.7999216 45.9295703,10.688549 45.3666797,10.5752157 C44.8049609,10.4603137 44.2135547,10.4026667 43.5987109,10.4026667 C42.3780078,10.4026667 41.4143359,10.6830588 40.7076953,11.2407059 C39.9967578,11.7971765 39.6416797,12.5607059 39.6416797,13.528549 C39.6416797,14.0273725 39.7194141,14.4473725 39.8733203,14.7893333 C40.0268359,15.130902 40.2389453,15.4246275 40.5053516,15.6658039 C40.7725391,15.9081569 41.0936328,16.1195294 41.4596484,16.3018824 C41.8268359,16.4822745 42.2326953,16.6544314 42.6756641,16.8156078 C43.3994922,17.0846275 43.9170703,17.3336471 44.2311328,17.5622745 C44.5448047,17.7905098 44.7026172,18.0791373 44.7026172,18.4277647 C44.7026172,18.8046275 44.5561328,19.0712941 44.2596484,19.2250196 C43.9666797,19.3799216 43.4979297,19.4567843 42.8561328,19.4567843 C42.2135547,19.4567843 41.6416797,19.3893333 41.1393359,19.2552157 C40.6522266,19.1258039 40.2319141,18.9889412 39.8780078,18.8461961 L39.4264453,20.8701176 C39.6545703,20.9654118 40.0491016,21.0877647 40.6037891,21.2407059 C41.1686328,21.3944314 41.9116016,21.4724706 42.8350391,21.4724706 C44.2135547,21.4724706 45.2741016,21.2156078 46.0174609,20.6975686 C46.7631641,20.1799216 47.1350391,19.4167843 47.1350391,18.408549 C47.1350391,17.9371765 47.0748828,17.5344314 46.9522266,17.1995294 L46.9522266,17.1995294 Z M73.0139453,21.2116863 L73.0139453,10.4026667 L70.5838672,10.836 L70.5838672,21.2116863 L73.0139453,21.2116863 Z M88.6479297,21.2116863 L88.6479297,5.79011765 L86.2162891,6.22541176 L86.2162891,21.2116863 L88.6479297,21.2116863 Z M115.872539,14.7795294 C116.178008,14.4552157 116.507695,14.1101176 116.855352,13.741098 C117.201055,13.3712941 117.545195,13.0014902 117.87918,12.6324706 C118.214336,12.2622745 118.530742,11.9058039 118.834258,11.5622745 C119.133867,11.2207059 119.392852,10.9218824 119.604961,10.6646275 L122.478398,10.6646275 C121.81082,11.4183529 121.105352,12.1983529 120.365508,13.0046275 C119.622539,13.8112941 118.878008,14.5971765 118.12957,15.3638431 C118.530742,15.701098 118.952617,16.1069804 119.392852,16.5846275 C119.833867,17.0607059 120.26043,17.5673725 120.675664,18.1065882 C121.088164,18.643451 121.478398,19.1818824 121.837383,19.7179608 C122.199883,20.2563922 122.499492,20.7548235 122.740508,21.2116863 L119.929961,21.2116863 C119.687383,20.7948235 119.409648,20.3575686 119.095586,19.9003137 C118.782305,19.4438431 118.442461,18.9995294 118.081523,18.5697255 C117.719023,18.1403137 117.350273,17.7324706 116.974492,17.3493333 C116.601445,16.9661961 116.231523,16.6403137 115.872539,16.3720784 L115.872539,21.2116863 L113.438945,21.2116863 L113.438945,6.22423529 L115.872539,5.79011765 L115.872539,14.7795294 Z M98.5983203,15.9081569 C98.5983203,14.8728627 98.3924609,14.0528627 97.9850391,13.4489412 C97.5760547,12.843451 96.9323047,12.5407059 96.0479297,12.5407059 C95.6436328,12.5407059 95.2674609,12.6007059 94.9131641,12.7218824 C94.5580859,12.843451 94.2717578,12.9783529 94.0573047,13.1261961 L94.0573047,19.1936471 C94.2334766,19.2352157 94.4565234,19.2728627 94.7303516,19.3061961 C95.0045703,19.3399216 95.3393359,19.3556078 95.7244922,19.3556078 C96.6213672,19.3556078 97.3256641,19.0505098 97.8358203,18.4399216 C98.3420703,17.8273725 98.5983203,16.9838431 98.5983203,15.9081569 L98.5983203,15.9081569 Z M101.088555,15.9469804 C101.088555,16.7952157 100.964336,17.5571765 100.716289,18.2375686 C100.469805,18.9156078 100.114336,19.4975686 99.6502734,19.9814902 C99.1920703,20.4658039 98.6307422,20.8348235 97.9748828,21.0905098 C97.3190234,21.3450196 96.5752734,21.4724706 95.7440234,21.4724706 C94.9420703,21.4724706 94.1764453,21.4132549 93.4455859,21.2932549 C92.7151172,21.1701176 92.1112109,21.0363922 91.6283984,20.8893333 L91.6283984,6.19835294 L94.0573047,5.76345098 L94.0573047,11.028549 C94.3397266,10.8803137 94.6862109,10.7458039 95.0924609,10.6258039 C95.5022266,10.5042353 95.9526172,10.4442353 96.4498828,10.4442353 C97.1858203,10.4442353 97.8451953,10.5752157 98.4260547,10.8363922 C99.0096484,11.0991373 99.4955859,11.4728627 99.8838672,11.9567843 C100.270977,12.4407059 100.568242,13.0226667 100.776445,13.6995294 C100.984648,14.3803137 101.088555,15.1277647 101.088555,15.9469804 L101.088555,15.9469804 Z M73.2955859,7.58031373 C73.2955859,8.0387451 73.1467578,8.39952941 72.8514453,8.66972549 C72.5576953,8.93952941 72.2088672,9.07207843 71.8080859,9.07207843 C71.3940234,9.07207843 71.0369922,8.93952941 70.7420703,8.66972549 C70.4479297,8.39952941 70.3010547,8.0387451 70.3010547,7.58031373 C70.3010547,7.1105098 70.4479297,6.73992157 70.7420703,6.47168627 C71.0369922,6.20305882 71.3940234,6.06737255 71.8080859,6.06737255 C72.2088672,6.06737255 72.5576953,6.20305882 72.8514453,6.47168627 C73.1467578,6.73992157 73.2955859,7.1105098 73.2955859,7.58031373 L73.2955859,7.58031373 Z M56.1123828,15.9281569 C56.1123828,14.8799216 55.8866016,14.0505098 55.4412891,13.4375686 C54.9912891,12.8273725 54.3639453,12.5207059 53.5627734,12.5207059 C52.7588672,12.5207059 52.1338672,12.8273725 51.6846484,13.4375686 C51.2346484,14.0505098 51.0108203,14.8799216 51.0108203,15.9281569 C51.0108203,16.9901176 51.2346484,17.8320784 51.6846484,18.4477647 C52.1338672,19.0665882 52.7588672,19.3767843 53.5627734,19.3767843 C54.3639453,19.3767843 54.9912891,19.0665882 55.4412891,18.4477647 C55.8866016,17.8320784 56.1123828,16.9901176 56.1123828,15.9281569 L56.1123828,15.9281569 Z M58.6033984,15.9281569 C58.6033984,16.7630588 58.4826953,17.5203137 58.2424609,18.2073725 C58.0006641,18.8924706 57.6596484,19.4775686 57.2190234,19.9622745 C56.7756641,20.4450196 56.2440234,20.821098 55.6205859,21.0905098 C54.9975391,21.3595294 54.3104297,21.4928627 53.5627734,21.4928627 C52.8127734,21.4928627 52.1291797,21.3595294 51.5155078,21.0905098 C50.8987109,20.821098 50.3682422,20.4450196 49.9272266,19.9622745 C49.4846484,19.4775686 49.1408984,18.8924706 48.8936328,18.2073725 C48.6444141,17.5203137 48.5217578,16.7630588 48.5217578,15.9281569 C48.5217578,15.0940392 48.6444141,14.3391373 48.8936328,13.6607059 C49.1408984,12.9814902 49.4877734,12.3995294 49.9366016,11.9152157 C50.3846484,11.4320784 50.9170703,11.0591373 51.5334766,10.7967843 C52.1498828,10.5336471 52.8252734,10.4026667 53.5627734,10.4026667 C54.2983203,10.4026667 54.9783984,10.5336471 55.5998828,10.7967843 C56.2237109,11.0591373 56.7569141,11.4320784 57.1959766,11.9152157 C57.6385547,12.3995294 57.9838672,12.9814902 58.2334766,13.6607059 C58.4811328,14.3391373 58.6033984,15.0940392 58.6033984,15.9281569 L58.6033984,15.9281569 Z" id="Fill-4" fill="#2F3744"></path>
                </g>
            </g>
        </g>
    </g>
</svg>